<?xml version="1.0" encoding="utf-8"?>
<!-- Generator: Adobe Illustrator 18.1.1, SVG Export Plug-In . SVG Version: 6.00 Build 0)  -->
<!DOCTYPE svg PUBLIC "-//W3C//DTD SVG 1.1//EN" "http://www.w3.org/Graphics/SVG/1.1/DTD/svg11.dtd">
<svg version="1.1" id="Capa_1" xmlns="http://www.w3.org/2000/svg" xmlns:xlink="http://www.w3.org/1999/xlink" x="0px" y="0px"
	 viewBox="0 0 151.2 43.5" enable-background="new 0 0 151.2 43.5" xml:space="preserve">
<metadata><?xpacket begin="﻿" id="W5M0MpCehiHzreSzNTczkc9d"?>
<x:xmpmeta xmlns:x="adobe:ns:meta/" x:xmptk="Adobe XMP Core 5.6-c014 79.156821, 2014/08/29-03:07:50        ">
   <rdf:RDF xmlns:rdf="http://www.w3.org/1999/02/22-rdf-syntax-ns#">
      <rdf:Description rdf:about=""
            xmlns:xmpMM="http://ns.adobe.com/xap/1.0/mm/"
            xmlns:stRef="http://ns.adobe.com/xap/1.0/sType/ResourceRef#"
            xmlns:stEvt="http://ns.adobe.com/xap/1.0/sType/ResourceEvent#"
            xmlns:xmp="http://ns.adobe.com/xap/1.0/"
            xmlns:xmpGImg="http://ns.adobe.com/xap/1.0/g/img/"
            xmlns:pdf="http://ns.adobe.com/pdf/1.3/"
            xmlns:dc="http://purl.org/dc/elements/1.1/"
            xmlns:xmpTPg="http://ns.adobe.com/xap/1.0/t/pg/"
            xmlns:stDim="http://ns.adobe.com/xap/1.0/sType/Dimensions#"
            xmlns:xmpG="http://ns.adobe.com/xap/1.0/g/">
         <xmpMM:RenditionClass>proof:pdf</xmpMM:RenditionClass>
         <xmpMM:DocumentID>xmp.did:bcf57e16-b405-d74f-95b3-8ccf936a49c7</xmpMM:DocumentID>
         <xmpMM:InstanceID>xmp.iid:bcf57e16-b405-d74f-95b3-8ccf936a49c7</xmpMM:InstanceID>
         <xmpMM:OriginalDocumentID>uuid:86ad5c63-5bd2-4418-b7ba-adf7585ad0ff</xmpMM:OriginalDocumentID>
         <xmpMM:DerivedFrom rdf:parseType="Resource">
            <stRef:instanceID>uuid:a23105ac-3303-49d1-8301-764cbb06f164</stRef:instanceID>
            <stRef:documentID>uuid:86ad5c63-5bd2-4418-b7ba-adf7585ad0ff</stRef:documentID>
            <stRef:originalDocumentID>uuid:86ad5c63-5bd2-4418-b7ba-adf7585ad0ff</stRef:originalDocumentID>
            <stRef:renditionClass>proof:pdf</stRef:renditionClass>
         </xmpMM:DerivedFrom>
         <xmpMM:History>
            <rdf:Seq>
               <rdf:li rdf:parseType="Resource">
                  <stEvt:action>saved</stEvt:action>
                  <stEvt:instanceID>xmp.iid:bcf57e16-b405-d74f-95b3-8ccf936a49c7</stEvt:instanceID>
                  <stEvt:when>2015-07-13T09:32:35-04:30</stEvt:when>
                  <stEvt:softwareAgent>Adobe Illustrator CC 2014 (Windows)</stEvt:softwareAgent>
                  <stEvt:changed>/</stEvt:changed>
               </rdf:li>
            </rdf:Seq>
         </xmpMM:History>
         <xmp:CreateDate>2015-07-13T09:32:35-04:30</xmp:CreateDate>
         <xmp:CreatorTool>Adobe Illustrator CC 2014 (Windows)</xmp:CreatorTool>
         <xmp:ModifyDate>2015-07-13T09:32:35-04:30</xmp:ModifyDate>
         <xmp:MetadataDate>2015-07-13T09:32:35-04:30</xmp:MetadataDate>
         <xmp:Thumbnails>
            <rdf:Alt>
               <rdf:li rdf:parseType="Resource">
                  <xmpGImg:width>256</xmpGImg:width>
                  <xmpGImg:height>72</xmpGImg:height>
                  <xmpGImg:format>JPEG</xmpGImg:format>
                  <xmpGImg:image>/9j/4AAQSkZJRgABAgEASABIAAD/7QAsUGhvdG9zaG9wIDMuMAA4QklNA+0AAAAAABAASAAAAAEA&#xA;AQBIAAAAAQAB/+4ADkFkb2JlAGTAAAAAAf/bAIQABgQEBAUEBgUFBgkGBQYJCwgGBggLDAoKCwoK&#xA;DBAMDAwMDAwQDA4PEA8ODBMTFBQTExwbGxscHx8fHx8fHx8fHwEHBwcNDA0YEBAYGhURFRofHx8f&#xA;Hx8fHx8fHx8fHx8fHx8fHx8fHx8fHx8fHx8fHx8fHx8fHx8fHx8fHx8fHx8f/8AAEQgASAEAAwER&#xA;AAIRAQMRAf/EAaIAAAAHAQEBAQEAAAAAAAAAAAQFAwIGAQAHCAkKCwEAAgIDAQEBAQEAAAAAAAAA&#xA;AQACAwQFBgcICQoLEAACAQMDAgQCBgcDBAIGAnMBAgMRBAAFIRIxQVEGE2EicYEUMpGhBxWxQiPB&#xA;UtHhMxZi8CRygvElQzRTkqKyY3PCNUQnk6OzNhdUZHTD0uIIJoMJChgZhJRFRqS0VtNVKBry4/PE&#xA;1OT0ZXWFlaW1xdXl9WZ2hpamtsbW5vY3R1dnd4eXp7fH1+f3OEhYaHiImKi4yNjo+Ck5SVlpeYmZ&#xA;qbnJ2en5KjpKWmp6ipqqusra6voRAAICAQIDBQUEBQYECAMDbQEAAhEDBCESMUEFURNhIgZxgZEy&#xA;obHwFMHR4SNCFVJicvEzJDRDghaSUyWiY7LCB3PSNeJEgxdUkwgJChgZJjZFGidkdFU38qOzwygp&#xA;0+PzhJSktMTU5PRldYWVpbXF1eX1RlZmdoaWprbG1ub2R1dnd4eXp7fH1+f3OEhYaHiImKi4yNjo&#xA;+DlJWWl5iZmpucnZ6fkqOkpaanqKmqq6ytrq+v/aAAwDAQACEQMRAD8AMc6l5Z2KuxV2KuxVWtru&#xA;6tZRNbTPBKv2ZI2KMPpFMEogiiyjIg2C9d/LvztNrUb6fqBB1CBeaS7D1Y60JIG3Ja7+OabWaUQ9&#xA;UeRdzo9UZ7H6gzXMBznYq7FXYq7FXYq7FXYq7FXYq7FXYq7FXYq7FXYq7FXYq7FXYq7FXYq7FXYq&#xA;7FXzPnUvLL4opJpUijXlJIwRFHUsxoBiTW6QLNPZ/J/5f6fpFqJb6KO61KQfvGcB0jB/ZQHb5tmj&#xA;1OrlM0Nou802kjAb7yZJ+idK/wCWOD/kUn9MxfEl3lyuCPc0dI0oihsoKf8AGJP6Y+JLvK8Ee580&#xA;R3fG7mgk2CyOIz7BjQZ0UDs87kjuaZb+Xkrx+cdOKGnJnVvcNGwOVawXiLbozWUPdc5937sVdirs&#xA;VdirsVdirsVdirsVdirsVdirsVdirsVdirsVdirsVdirsVdirsVdir5nzqXlmwabjFWXeTtK8zeY&#xA;bygv7qHT4SPrFx6r/wDAJvux/DMPU5MeMchxObpseTIeZ4XscEMFnaLErFYYF+3IxYgDclmYk/Mn&#xA;NISZG3dgUKVVZWUMpDKwqCNwQcil8rXcX+n3H/GV/wDiRzpYDZ5yZ3LLPy3dv8XaYrb0kah/55tl&#xA;Wr/ui2aT+9D37Ofd+7FXYq7FXYq7FXYq7FXYq7FXYq7FXYq7FXYq7FXYq7FXYq7FXYq7FXYq7FXY&#xA;q+Z86l5ZkXk7ydeeYbzvFp8RH1m5p9PBK9WP4ZjanUjGPNytNpjkP9F7ZZWVhpVglvbotvaW6nvQ&#xA;ADcsxP3knNFKRmbO5LvYxERQ5PF/zJ/MyTWWk0fR3KaUp4z3A2NwR2HhH+vNnpdLw+qXN1mq1XF6&#xA;Y8nqmo+ZNO8v+W7e9vW/3TGsMK/bkfgKKv8AE9swIYTkmQHPnlGONl89kGaeSUihkYvTw5GudCBQ&#xA;efkbNsp/L1Avm/TP+Mjf8m2zH1f90W7Sf3oe85z70DsVdirsVdirsVdirsVdirsVdirsVdirsVdi&#xA;rsVdirsVdirsVdirsVdirsVdiry+9/Ky7uPNM3psItGkb1/WFOShjUxKv8w7HpT7s20deBj/AKTq&#xA;paAnJ/RejWVlYaVYJb26Lb2lup70AA3LMT95JzWSkZmzuS7OMREUOTxb8y/zLk1qR9I0hymkoaTz&#xA;jY3BH/Mv9ebTS6Xh9Uubq9VquL0x5MBiizPAcAlObzU9U1P0Pr9w9wLaNYYA/RUUUAFPluep74wx&#xA;xjyHNM8spczyWogUZNqZH5A/5TDTP+Mjf8m2zH1f90XJ0f8Aeh7vnPPQPOPPn/OQH5b+TLuSwvby&#xA;S/1SE8ZrCwQTSRnwkZmSJT4qX5e2KoXy5+fug63pEOpxaZdQxTl+CMYy1EYoa0NOqnMzDo5ZI8QI&#xA;cTNrI45cJBZZ5X896f5hvJbW2t5YXij9UtJxoRyC0+EnxyOfSSxiyU4NVHIaAeT/APQ4PlD659W/&#xA;QWocvU9PlyhpXlxr9rMVy3vuKHYq7FWEfmr+aulflzpVlqOo2U97Hezm3RLcoCpCF6nmRttiqX/l&#xA;R+d2ifmPd6ha6dp9zZPp0ccsjXBjIYSMVAHAnpxxV6PirsVdirsVYd+af5mab+Xfl+31rULSa9hu&#xA;LtLJYrcoGDPHJKGPMgUpCcVSn8qPzu0T8x7vULXTtPubJ9Ojjlka4MZDCRioA4E9OOKs38xazDof&#xA;l/U9anjaWHS7Se9liSnJlt42lZVrtUhdsVX6HqsWr6Lp+rQo0cWoW0N1HG9OSrPGJArU2qA2Ko3F&#xA;WJQ/md5bl/MSfyAq3A1y3gFy7mMfVypjWXiH5cuXBwfs0964qy3FXYqgtc1WLSNF1DVpkaSLT7aa&#xA;6kjSnJlgjMhVa7VIXFXaHqsWr6Lp+rQo0cWoW0N1HG9OSrPGJArU2qA2Ko3FXYqlvmDQbXXdNbTr&#xA;uWaK2kYGUQPwLgfssaH4e9Msx5DA2GGSAkKLFV/JbyYP+Wr/AJGj/mnMn8/k8nG/I4/NVX8nvJy9&#xA;Bc/8jR/zTj+fyeS/kcfmqr+U/lJeiz/8jf7Mfz+TyX8hjQWs/lLpT2THSZHhvF3QTNyR/wDJO1R8&#xA;8sxdoSv1cmvL2fEj07Fh3k+wvLDz1YWl5E0NxHKweNuv2G3HiPcZm6mYlhJHJwtNAxzAHmm3/OSP&#xA;5m3vknyZFb6TKYNb1t3t7S4XZoYowDPKp7OA6qvgWr2zQu9fK/5W/lb5g/MjzBJY2Mgt7aACbUtS&#xA;mDOsSu1BsPtyPvxWorQ77HFL668pfkT5W8v6DbaU9zc3zQcibh2WOpdi5oijYVbuT88ycWrnAUOT&#xA;i5dLCZssr0DyZouhXMlzYCQSyp6bc35DjUN4e2DNqZ5BRZYtNDGbi/PH/pd/9HP/ADMzHch+j2s6&#xA;1pOiaZcapq11HZafarznuZm4qo/iSdgBuTsN8UPCNb/5zI8q2140Wj6FdalbKafWZpUtQ3uqcZmp&#xA;/rUPtirL/wAuP+cjvInnW+i0o+ro+szHjBaXfEpKx6LFMp4s3grBSewOKsR/5zK/5Q7Qf+2i3/Jh&#xA;sVeV/wDOPn5n+V/y9j8yaprLTS3NzHaw2Gn26cnmIMrO3NiqIqUWtT+1sDil6nof/OY/lW61FINW&#xA;0O602zduP1yOVbnhU/aeMJG1PHjU+xxQ9vu/NXluz8v/AOIrnUoItD9JZxqJceiY3pwKsOvIkAAb&#xA;k7dcVeMeYv8AnMHyTY3LQ6Jpd3rCoaG4YraRNv1TkJJKf6yDFVfyf/zlv5K1jUorHWbCfQvXYJHd&#xA;vIs9urHYeo6rGyA+PEgd6DfFWv8AnMMg/ljpZBqDrUBBH/MJdYqwv/nDD/jueZ/+Ya2/5OPil9B/&#xA;mj/5LLzd/wBsXUf+oSTFCv8Al5/ygHln/tlWP/UMmKsgxVKkvvLv+KJdPT0h5iFklzKBHSb6m0rR&#xA;oTLx3X1EI48voxVRm87+U4IdWnuNThgh0OQQarLMTGsMhQSBCzhQxKsKca16dcVYon/OQX5YGRPV&#xA;vrm2tJW4w6jcWV3FauagbStGABv1NBirJPP0sU35d+Y5YnWSKTSL145EIZWVrZyCCNiCMVXfl5/y&#xA;gHln/tlWP/UMmKovU/NOg6Zqum6Re3Yj1PV2ZNOtFV5JJTGKueKK3FVG5ZqAeOKprirsVdirsVdi&#xA;rsVQl1pVhdXdteTQhrq0YtbzdGWoIIqOoNemTjkIBA5FhKAJBPMPlL/nMmeVvO+h25P7qPTPUVfB&#xA;nuJAx+5BkGx6B/zh3YWkf5eapfIAbq51R4pnHXjDBEUU/L1GP04oY/8AnV/zkH+YHk78xdR8v6P9&#xA;T+oWqW7RetAXessCSNVua/tMcUp1/wA48/nZ518++atQ0zXvqv1a2sWuYvq8Rjb1BNGm5LNtRzih&#xA;8pf9Lv8A6Of+ZmKXvf8AzmD5zu5/MOm+UYZCtjZQLe3cYOz3ExZU5Cu/pxr8P+scUKf/ADj9+QHl&#xA;jzl5Vn8x+ZWuJEmne3sLaCT0lCxAB5WYAsxLmgHQU3rXZV5Z+a3kd/IXn6+0KCZ5Le3ZJ9PuWNJD&#xA;DIoeMkgL8S/ZJHcYpen/AJyebrnzZ+QnkXWrxxJfyXckF6/dprdJIWdvd+HP6cVYr/zj5+U+ifmF&#xA;r2oRa1cTRWOmQxytBbkK8rSsVALkNxUcd6Cp9sVVf+ch/wAodL/L3WdNl0V5W0jVo5THFOwd4poC&#xA;vqKGAFVKyKVrv1xV6b/zjObfzp+VHmPyNrXKbT7eX046neOK8UuoSvQxzRtIvucUJI35Tf8AOPPk&#xA;iJ7bzz5qbU9aSontbRnAjYfsejbCaVWr3kcfIYpeG+dIvKUXmS8XylPcXGgFgbNrteEoBA5K3iA1&#xA;eJ8Ou+KvafzK1e51b/nFTyNeXLl5l1KO2LnqVtI722Wv+xiGKEV/zhh/x3PM/wDzDW3/ACcfFL6D&#xA;/NH/AMll5u/7Yuo/9QkmKFf8vP8AlAPLP/bKsf8AqGTFWQYqwCH/AMn7ef8AgK23/dRuMVYt5P8A&#xA;IWja/wDml531fWeV9b6Zq0YsdKl3tFuGtYibl4+kkgWiryFF38dlL1/UtNsNTsLjT9QgS5srqNor&#xA;iCQVV0YUIOKHj35f3Fx/0L95l0yZzKNDh1vS4ZWNS0VusvCv+qrcR7DFLLLPzlpHk/8AJ7Qtb1Ni&#xA;Y4tKsEt7dP72ed7ZPThiHd3P4VPQYoW/lt5N1ZLy687+bgH846ygU29ax6dZ1rHZw9aU6yHufpJV&#xA;egYq7FXYq7FXYq7FXYq+cf8AnMTyddXWl6P5rtYy8enl7PUSKnhHMQ0LkdlDhlJ8WXFWD/8AOM/5&#xA;xaP5Nu7/AEHzDMbbR9TdZ7e8oWSC5UcG9QCpCyIFHLsVFdjUKsx/5yTh/KLUvKl55l0q806+82XU&#xA;tqiXNteCaZ41oppEkjLQRL144pYx/wA4cf8AKf6x/wBspv8AqJhxV4ezKuslmNFW5qSegAfFXr3/&#xA;ADldp6f8rCttctZUudO1axiMN1EweMywEo6BlqKhODf7IYq9S/5xU88eXB+Xkmh3d/b2moabdTO8&#xA;E8ixs0M37xZV5kVAPIGnSm/UYoeG/wDORHm3S/M/5o6heaVMlzYWscNnDcxmqSGFfjZT3X1GYAjY&#xA;0qMUsg8/aJc6T/zjf5EjuVZJru/nvCjClEuBK8RHs0RVvpxVNP8AnEPzDoWleY9dg1O/gsZLy2hF&#xA;qLiRYhIY3YsqlyASOQ264q7/AJy389aHrmt6Nomk3Ud7+h0nkvZoGDxiW49MLGHGxZFiq1D3p1GK&#xA;GN+T9Z8xeUPyL8w61psjWr+YtXtdIiulNHWOK3mmmaM9qg8OXzpuMUpZ+R35c6D56803Fpr+pfUd&#xA;Ps4DcSIsiRzTtypxRpAwAG7Oaf1CqWfnBpHkzR/PV3pnk+ZbjRrWOJBKkpnBm4Ay/vCSGo23w7Yq&#xA;9B83f+sjeSf+21N/yc1HFCYf84c6jYW3mPzDBcXEcM1xawegkjBS/GVgQtep+MbYpfRn5o/+Sy83&#xA;f9sXUf8AqEkxQr/l5/ygHln/ALZVj/1DJirIMVYBD/5P28/8BW2/7qNxiqn+WX/KYfmL/wBtqP8A&#xA;6g4cUvQ8UPEfIf8A5Jj8wv8AmL8xf8QfFKD8k/lve/mR5Y0/U/O0UlrpFtpMWneVtJDMrRAQLG2p&#xA;uBxrLIV5RA7BaddjirO/ym806pd2l75T8yN/ztnld1tb9yT/AKVAR/o94ldyJU6++5pWmKGf4q7F&#xA;XYq7FXYq7FXYqhtT0zT9U0+407UbdLqxu0aK4t5ByR0YUIIxV8vefP8AnEHV4ruW68l38VzZMeS6&#xA;dfMY5o6/spKAUkH+tx+nFWGWv/OLP5xT3CxS6dbWqMaGeW7gKL7kRNI/3Lil9D/kj+RNp+XK3GoX&#xA;V79f1+9i9CeWMFLeOLkH9ONTu1WUEu30Ab1UPIfzQ/5xb85P5qvdR8oxQ3+lahM9wlsZUgkt2kYs&#xA;0Z9VlVlBPwkGtO2KWdeRv+ceZLv8oJvKXnSFbPVGv5r+wubd0mktmeKNAeS/C3LgQ6VoR3rQhQ8m&#xA;1v8A5xQ/NWxvGi06K11a2r+7uYZ0hJHbkk5jIPsK/PFLL/yz/wCcStSGpQaj56mhSyhYP+h7Z/Ue&#xA;UqahZpVoqp4hCSR3GKHpf/OQn5YeYfPXlvSdM8urbpJYXRldJn9JBH6RQBaK3SvTFXjh/wCcQvOv&#xA;+GDci9tR5iSd66fzJhkt+K8OE3EcZOfLZhxIpuKbqUD5W/5xM/MfUNSjj176vounKQZ5/VjuJSvc&#xA;RJEWBb/WYD9WKvozzL+TflnVvyxXyFaA2dlaoh064I5vFcRkkTNTjzZyzc/HkemKHzJN/wA4q/m6&#xA;moNax2drLbhyq3wuoxEVr9vixEtP9hXFKfa3/wA4gec7a1sBpF/a3926MdSMjmCKOSo4LDVWZxSt&#xA;WNPkMVerWf5H32o/kFY/l/rM0VtrVk81xb3MZMsUdwbqaWM1opKtHNwbbap8MUPGPLf/ADjP+bVh&#xA;5r0y4uNPt1s7S9gmluhdQlPTilVmYKG9ToP5a4pfWHnvS73VvI/mHSrFBJe6hpl5a2sZIUNLNbvG&#xA;i8mIAqzDc4oYV5c1782tH8vaXpB/L71jp1pBaGYaxZrz9CJY+XHiaV41pXFKZJ5y/Ncuob8u+Kkg&#xA;M36ZszQeNOOKExj8v6qv5t3HmIxD9EyaBBp6T8lqbhL2aZk4V5fYcGtKYqs8j+XdW0rzH5yvb2IR&#xA;2+r6ml1YOHVucS20cZYhSSvxIRQ4qzHFXl/lPyP5k0/8tPOGh3dsqalq1xrEljCJI2DreKwgJYMV&#xA;XlXudu+KWc+TtPu9N8o6Hp14np3dlp9rb3CAhgskUKo4qtQaMO2KGMef/KWuf4i0bzt5TgWbzBpj&#xA;i11GyMiwi+0yVv3sLO5CBoz8aE/jtir/AP/Z</xmpGImg:image>
               </rdf:li>
            </rdf:Alt>
         </xmp:Thumbnails>
         <pdf:Producer>Adobe PDF library 10.01</pdf:Producer>
         <dc:format>image/svg+xml</dc:format>
         <xmpTPg:NPages>1</xmpTPg:NPages>
         <xmpTPg:HasVisibleTransparency>True</xmpTPg:HasVisibleTransparency>
         <xmpTPg:HasVisibleOverprint>False</xmpTPg:HasVisibleOverprint>
         <xmpTPg:MaxPageSize rdf:parseType="Resource">
            <stDim:w>53.344196</stDim:w>
            <stDim:h>15.345833</stDim:h>
            <stDim:unit>Millimeters</stDim:unit>
         </xmpTPg:MaxPageSize>
         <xmpTPg:PlateNames>
            <rdf:Seq>
               <rdf:li>Cyan</rdf:li>
               <rdf:li>Magenta</rdf:li>
               <rdf:li>Yellow</rdf:li>
               <rdf:li>Black</rdf:li>
            </rdf:Seq>
         </xmpTPg:PlateNames>
         <xmpTPg:SwatchGroups>
            <rdf:Seq>
               <rdf:li rdf:parseType="Resource">
                  <xmpG:groupName>Grupo de muestras por defecto</xmpG:groupName>
                  <xmpG:groupType>0</xmpG:groupType>
                  <xmpG:Colorants>
                     <rdf:Seq>
                        <rdf:li rdf:parseType="Resource">
                           <xmpG:swatchName>PANTONE P 114-14 C</xmpG:swatchName>
                           <xmpG:type>PROCESS</xmpG:type>
                           <xmpG:tint>100.000000</xmpG:tint>
                           <xmpG:mode>CMYK</xmpG:mode>
                           <xmpG:cyan>79.034102</xmpG:cyan>
                           <xmpG:magenta>51.598400</xmpG:magenta>
                           <xmpG:yellow>27.170199</xmpG:yellow>
                           <xmpG:black>4.974400</xmpG:black>
                        </rdf:li>
                        <rdf:li rdf:parseType="Resource">
                           <xmpG:swatchName>PANTONE P 112-14 C</xmpG:swatchName>
                           <xmpG:type>PROCESS</xmpG:type>
                           <xmpG:tint>100.000000</xmpG:tint>
                           <xmpG:mode>CMYK</xmpG:mode>
                           <xmpG:cyan>63.344800</xmpG:cyan>
                           <xmpG:magenta>28.470299</xmpG:magenta>
                           <xmpG:yellow>3.433300</xmpG:yellow>
                           <xmpG:black>0.000000</xmpG:black>
                        </rdf:li>
                        <rdf:li rdf:parseType="Resource">
                           <xmpG:swatchName>PANTONE P 179-15 C</xmpG:swatchName>
                           <xmpG:type>PROCESS</xmpG:type>
                           <xmpG:tint>100.000000</xmpG:tint>
                           <xmpG:mode>CMYK</xmpG:mode>
                           <xmpG:cyan>66.714001</xmpG:cyan>
                           <xmpG:magenta>64.434302</xmpG:magenta>
                           <xmpG:yellow>63.713998</xmpG:yellow>
                           <xmpG:black>61.800599</xmpG:black>
                        </rdf:li>
                        <rdf:li rdf:parseType="Resource">
                           <xmpG:swatchName>PANTONE P 179-11 C</xmpG:swatchName>
                           <xmpG:type>PROCESS</xmpG:type>
                           <xmpG:tint>100.000000</xmpG:tint>
                           <xmpG:mode>CMYK</xmpG:mode>
                           <xmpG:cyan>58.889103</xmpG:cyan>
                           <xmpG:magenta>50.997198</xmpG:magenta>
                           <xmpG:yellow>46.451500</xmpG:yellow>
                           <xmpG:black>16.006701</xmpG:black>
                        </rdf:li>
                     </rdf:Seq>
                  </xmpG:Colorants>
               </rdf:li>
            </rdf:Seq>
         </xmpTPg:SwatchGroups>
      </rdf:Description>
   </rdf:RDF>
</x:xmpmeta>
                                                                                                    
                                                                                                    
                                                                                                    
                                                                                                    
                                                                                                    
                                                                                                    
                                                                                                    
                                                                                                    
                                                                                                    
                                                                                                    
                                                                                                    
                                                                                                    
                                                                                                    
                                                                                                    
                                                                                                    
                                                                                                    
                                                                                                    
                                                                                                    
                                                                                                    
                                                                                                    
                           
<?xpacket end="w"?>
	</metadata>
<g>
	<path fill="#171617" d="M52.2,21.7h4.2v14.8c0,0.4,0.1,0.7,0.2,0.9c0.2,0.2,0.3,0.3,0.5,0.3c0.1,0,0.2,0,0.2,0c0.1,0,0.8,0,0.8,0
		v3.1C58,40.9,57.7,41,57.3,41c-0.4,0.1-0.8,0.1-1.2,0.1c-0.7,0-1.3-0.1-1.8-0.3c-0.5-0.2-0.9-0.5-1.2-1c-0.3-0.4-0.5-0.9-0.6-1.5
		c-0.1-0.6-0.2-1.2-0.2-2V21.7z"/>
	<path fill="#171617" d="M58.3,33.7c0-1.2,0.2-2.2,0.6-3.2c0.4-0.9,0.9-1.7,1.5-2.3c0.6-0.6,1.4-1.1,2.2-1.5
		c0.8-0.3,1.7-0.5,2.6-0.5c0.9,0,1.8,0.2,2.6,0.5c0.8,0.3,1.6,0.8,2.2,1.5c0.6,0.6,1.2,1.4,1.5,2.3c0.4,0.9,0.6,2,0.6,3.2
		c0,1.2-0.2,2.2-0.6,3.2c-0.4,0.9-0.9,1.7-1.5,2.3c-0.6,0.6-1.4,1.1-2.2,1.5c-0.8,0.3-1.7,0.5-2.6,0.5c-0.9,0-1.8-0.2-2.6-0.5
		c-0.8-0.3-1.6-0.8-2.2-1.5c-0.6-0.6-1.2-1.4-1.5-2.3C58.5,35.9,58.3,34.9,58.3,33.7z M62.6,33.7c0,1.2,0.2,2.2,0.6,3
		c0.4,0.7,1.1,1.1,2,1.1c0.9,0,1.5-0.4,2-1.1c0.4-0.7,0.7-1.7,0.7-3c0-1.2-0.2-2.2-0.7-3c-0.4-0.7-1.1-1.1-2-1.1
		c-0.9,0-1.5,0.4-2,1.1C62.8,31.4,62.6,32.4,62.6,33.7z"/>
	<path fill="#171617" d="M73.8,21.7H78v3.9l-0.1,2.2c0.6-0.5,1.2-0.9,1.8-1.2c0.6-0.3,1.3-0.4,2-0.4c0.9,0,1.6,0.2,2.3,0.5
		c0.7,0.3,1.3,0.8,1.8,1.4c0.5,0.6,0.9,1.4,1.1,2.3c0.3,0.9,0.4,1.9,0.4,3c0,1.2-0.2,2.3-0.5,3.3c-0.3,1-0.8,1.8-1.3,2.4
		c-0.6,0.7-1.2,1.2-1.9,1.5c-0.7,0.3-1.5,0.5-2.2,0.5c-0.6,0-1.3-0.2-1.9-0.5c-0.6-0.3-1.2-0.8-1.8-1.4h-0.1l-0.3,1.5h-3.3V21.7z
		 M78,36.8c0.4,0.3,0.8,0.6,1.1,0.7c0.4,0.1,0.8,0.2,1.1,0.2c0.7,0,1.3-0.3,1.9-1c0.5-0.7,0.8-1.7,0.8-3.2c0-2.6-0.8-3.8-2.5-3.8
		c-0.8,0-1.7,0.4-2.4,1.3V36.8z"/>
	<path fill="#171617" d="M88.1,36.8c0-1.5,0.6-2.7,1.9-3.5c1.3-0.8,3.3-1.4,6.1-1.7c0-0.6-0.2-1.1-0.6-1.5c-0.3-0.4-0.9-0.6-1.7-0.6
		c-0.6,0-1.2,0.1-1.8,0.3c-0.6,0.2-1.3,0.5-2,0.9l-1.5-2.8c0.9-0.6,1.9-1,2.9-1.3c1-0.3,2.1-0.5,3.2-0.5c1.8,0,3.2,0.5,4.2,1.6
		c1,1,1.5,2.7,1.5,4.9v8.2h-3.4l-0.3-1.5h-0.1c-0.6,0.5-1.3,1-1.9,1.3c-0.7,0.3-1.4,0.5-2.2,0.5c-0.7,0-1.2-0.1-1.8-0.3
		c-0.5-0.2-1-0.5-1.3-0.9c-0.4-0.4-0.6-0.8-0.8-1.4S88.1,37.4,88.1,36.8z M92.1,36.5c0,0.5,0.1,0.8,0.4,1c0.3,0.2,0.7,0.3,1.2,0.3
		c0.5,0,0.9-0.1,1.3-0.3c0.3-0.2,0.7-0.5,1.1-0.9v-2.5c-1.5,0.2-2.6,0.5-3.1,0.9C92.4,35.5,92.1,36,92.1,36.5z"/>
	<path fill="#171617" d="M102.2,21.7h4.2v14.8c0,0.4,0.1,0.7,0.2,0.9c0.2,0.2,0.3,0.3,0.5,0.3c0.1,0,0.2,0,0.2,0c0.1,0,0.6,0,0.8,0
		v3.1c-0.2,0.1-0.5,0.2-0.9,0.2c-0.4,0.1-0.8,0.1-1.2,0.1c-0.7,0-1.3-0.1-1.8-0.3c-0.5-0.2-0.9-0.5-1.2-1c-0.3-0.4-0.5-0.9-0.6-1.5
		c-0.1-0.6-0.2-1.2-0.2-2V21.7z"/>
	<path fill="#171617" d="M112.8,21.7h0.9v18.6h8.9v0.8h-9.8V21.7z"/>
	<path fill="#171617" d="M125.1,23.9c-0.3,0-0.5-0.1-0.7-0.3c-0.2-0.2-0.3-0.4-0.3-0.7c0-0.3,0.1-0.6,0.3-0.7
		c0.2-0.2,0.4-0.2,0.7-0.2c0.3,0,0.5,0.1,0.7,0.2c0.2,0.2,0.3,0.4,0.3,0.7c0,0.3-0.1,0.5-0.3,0.7C125.6,23.8,125.4,23.9,125.1,23.9z
		 M124.6,27.4h0.9v13.7h-0.9V27.4z"/>
	<path fill="#171617" d="M128.6,27.4h0.7l0.1,2.2h0.1c0.7-0.7,1.5-1.3,2.2-1.8c0.7-0.5,1.6-0.7,2.6-0.7c1.4,0,2.5,0.4,3.1,1.3
		c0.7,0.8,1,2.2,1,4v8.8h-0.9v-8.7c0-1.5-0.3-2.7-0.8-3.4c-0.5-0.7-1.4-1.1-2.6-1.1c-0.9,0-1.7,0.2-2.4,0.7
		c-0.7,0.5-1.5,1.1-2.4,2.1v10.5h-0.9V27.4z"/>
	<path fill="#171617" d="M141.3,21.7h0.9v14.4h0.1l7.1-8.7h1l-4.4,5.4l5.2,8.3h-1l-4.8-7.6l-3.3,3.8v3.8h-0.9V21.7z"/>
	<path fill="#171617" d="M44,34h2v2.9c0,0.2-0.2,0.3-0.5,0.4c-0.4,0.1-0.6,0.1-1,0.1c-1.8,0-3-0.5-3.9-1.6c-0.9-1.1-1.3-2.6-1.3-4.5
		c0-0.9,0.1-1.8,0.4-2.5c0.2-0.7,0.6-1.4,1-1.9c0.4-0.5,1-0.9,1.6-1.2c0.6-0.3,1-0.4,1.7-0.4c0.1,0-0.1,0-0.1,0v-3.6c0,0,0.1,0,0,0
		c-1.3,0-2.3,0.2-3.4,0.7c-1.1,0.4-2,1.1-2.9,1.9c-0.8,0.8-1.5,1.9-1.9,3.1c-0.5,1.2-0.7,2.6-0.7,4.1c0,1.6,0.2,3,0.7,4.1
		c0.5,1.2,1.1,2.2,1.9,3c0.8,0.8,1.8,1.4,2.9,1.8c1.1,0.4,2.3,0.6,3.5,0.6c1.3,0,2.3-0.2,3.4-0.7c1.1-0.4,1.4-1,2.4-1.6V30h-6V34z"
		/>
	<polygon fill="#5D9BCC" points="50,25 44,25 44,21.7 50,21.7 	"/>
	<g>
		<path fill="#5D9BCC" d="M24.7,0H0v17.4c0,2,1,3.9,2.3,5.3l11.2-11.1l1.6-1.6l-4,0c0,0,0,0,0,0H9.8C9.4,10,9,9.8,8.9,9.4
			c-0.1-0.4-0.1-0.8,0.2-1l3.4-3.2C12.6,5,12.9,5,13.1,5h10.2c0.3,0,0.4,0,0.5,0.2C24,5.3,24,5.4,24,5.7v10.2c0,0.3,0,0.5-0.1,0.7
			l-3.3,3.4c-0.1,0.1-0.2,0.2-0.3,0.2c-0.2,0.1-0.4,0.1-0.7,0C19.2,20,19,19.6,19,19.2v-1.7v-3.7L7.7,25h0l18.4,0l5.9,4.7V8.8V7.7
			C32,3.4,29,0,24.7,0z M11,10.4"/>
		<g>
			<linearGradient id="SVGID_1_" gradientUnits="userSpaceOnUse" x1="23.5861" y1="22.8503" x2="7.1811" y2="6.4454">
				<stop  offset="0" style="stop-color:#3472AF;stop-opacity:0"/>
				<stop  offset="0.1527" style="stop-color:#3971A6;stop-opacity:0.1527"/>
				<stop  offset="0.4408" style="stop-color:#3F709A;stop-opacity:0.4408"/>
				<stop  offset="0.7253" style="stop-color:#426F93;stop-opacity:0.7253"/>
				<stop  offset="1" style="stop-color:#436F91"/>
			</linearGradient>
			<path fill="url(#SVGID_1_)" d="M24,15.8c0,0.3,0,0.5-0.1,0.7l-3.3,3.4c-0.1,0.1-0.2,0.2-0.3,0.2c-0.2,0.1-0.4,0.1-0.7,0
				c-0.4-0.1-0.6-0.5-0.6-0.9v-1.7v-3.7L7.7,25h0l18.4,0l5.9,4.7V13.4l-8.1-8.3l0,0C24,5.3,24,5.5,24,5.7V15.8z"/>
		</g>
	</g>
</g>
</svg>
